<svg width="94" height="35" viewBox="0 0 94 35" fill="none" xmlns="http://www.w3.org/2000/svg">
<path d="M71.1707 11.1204C71.1707 4.97469 75.405 0 82.2647 0C89.1599 0 93.3942 4.97469 93.3942 11.1204C93.3942 17.266 89.1599 22.2398 82.2647 22.2398C75.4041 22.2398 71.1707 17.2613 71.1707 11.1204ZM75.545 11.1204C75.5006 12.0363 75.6428 12.9517 75.9624 13.8093C76.2821 14.667 76.7726 15.4486 77.4031 16.1053C78.0337 16.762 78.7908 17.2797 79.6273 17.6261C80.4638 17.9725 81.3616 18.1402 82.2647 18.1187C83.1723 18.1448 84.0755 17.9808 84.9178 17.637C85.7602 17.2931 86.5238 16.7768 87.1609 16.1202C87.7981 15.4636 88.2951 14.6807 88.621 13.8205C88.947 12.9603 89.0948 12.0411 89.0554 11.1204C89.0948 10.1996 88.947 9.28041 88.621 8.4202C88.2951 7.55998 87.7981 6.77715 87.1609 6.12053C86.5238 5.46391 85.7602 4.94758 84.9178 4.60374C84.0755 4.25991 83.1723 4.09593 82.2647 4.12205C81.3616 4.1005 80.4638 4.26816 79.6273 4.61457C78.7908 4.96097 78.0337 5.47868 77.4031 6.13538C76.7726 6.79208 76.2821 7.57367 75.9624 8.43136C75.6428 9.28905 75.5006 10.2044 75.545 11.1204ZM22.0394 12.6835V0.462322H26.2747V12.6835C26.2747 15.6327 27.9901 18.1196 31.4545 18.1196C34.9543 18.1196 36.5642 15.6678 36.5642 12.6835V0.462322H40.7995V12.6835C40.7995 18.1907 37.3351 22.2407 31.4554 22.2407C25.6447 22.2398 22.0394 18.1907 22.0394 12.6826V12.6835ZM62.9419 21.7784V9.20191L56.434 15.8838L49.887 9.20191V21.7784H45.6526V0.462322H46.8071L56.3622 10.0185L66.0217 0.462322H67.1417V21.7784H62.9419ZM14.0001 21.7784C12.7047 19.8599 9.90572 15.6678 7.94487 12.6835L4.3405 16.4854V21.7784H0.105225V0.462322H4.3405V10.5159L13.9291 0.461374H19.5438L19.1098 0.922749L10.9202 9.55623L19.4318 21.7774L14.0001 21.7784Z" fill="white"/>
<path d="M5.57 28.0347V29.7227H3.71657V34.8253H1.84373V29.7227H0V28.0347H5.57Z" fill="white"/>
<path d="M10.8909 33.2053H13.4527V34.8253H9.02775V28.0347H13.3751V29.6548H10.8909V30.654H13.1228V32.1867H10.8909V33.2053Z" fill="white"/>
<path d="M20.3096 34.9999C19.281 34.9999 18.4206 34.6604 17.7284 33.9813C17.0426 33.3023 16.6998 32.4551 16.6998 31.4397C16.6998 30.4179 17.0426 29.5675 17.7284 28.8884C18.4206 28.2029 19.281 27.8601 20.3096 27.8601C21.2023 27.8601 21.9625 28.1285 22.59 28.6653C23.224 29.2021 23.6089 29.9005 23.7448 30.7607H21.8525C21.7749 30.5278 21.6617 30.3274 21.5129 30.1592C21.3641 29.9846 21.1862 29.8488 20.9792 29.7518C20.7721 29.6548 20.5522 29.6063 20.3193 29.6063C19.8341 29.6063 19.433 29.7809 19.116 30.1301C18.8055 30.4729 18.6502 30.9094 18.6502 31.4397C18.6502 31.7825 18.7214 32.0929 18.8637 32.371C19.006 32.6426 19.2034 32.856 19.4557 33.0113C19.7144 33.1665 20.0023 33.2441 20.3193 33.2441C20.5651 33.2441 20.7916 33.1923 20.9986 33.0889C21.2121 32.9854 21.39 32.8399 21.5323 32.6523C21.6811 32.4648 21.7878 32.2481 21.8525 32.0024H23.7642C23.6348 32.8948 23.2531 33.6192 22.6191 34.1754C21.9851 34.7251 21.2153 34.9999 20.3096 34.9999Z" fill="white"/>
<path d="M31.2087 28.0347H33.101V34.8253H31.2087V32.2158H29.1709V34.8253H27.2884V28.0347H29.1709V30.489H31.2087V28.0347Z" fill="white"/>
<path d="M41.2753 28.0347H43.0899V34.8253H41.547L38.8493 31.139V34.8253H37.0347V28.0347H38.6649L41.2753 31.5949V28.0347Z" fill="white"/>
<path d="M50.414 34.9999C49.3207 34.9999 48.4215 34.6669 47.7163 34.0007C47.0177 33.3282 46.6683 32.4712 46.6683 31.43C46.6683 30.3888 47.0177 29.5351 47.7163 28.869C48.4215 28.1964 49.3207 27.8601 50.414 27.8601C51.5008 27.8601 52.3936 28.1964 53.0923 28.869C53.7909 29.5351 54.1403 30.3888 54.1403 31.43C54.1403 32.4712 53.7909 33.3282 53.0923 34.0007C52.3936 34.6669 51.5008 34.9999 50.414 34.9999ZM49.1234 32.7396C49.4663 33.0824 49.8965 33.2538 50.414 33.2538C50.9315 33.2538 51.3553 33.0824 51.6852 32.7396C52.0216 32.3969 52.1898 31.9603 52.1898 31.43C52.1898 30.8997 52.0216 30.4632 51.6852 30.1204C51.3553 29.7776 50.9315 29.6063 50.414 29.6063C49.8965 29.6063 49.4663 29.7776 49.1234 30.1204C48.787 30.4632 48.6188 30.8997 48.6188 31.43C48.6188 31.9603 48.787 32.3969 49.1234 32.7396Z" fill="white"/>
<path d="M59.6135 33.1083H62.0298V34.8253H57.7213V28.0347H59.6135V33.1083Z" fill="white"/>
<path d="M68.6936 34.9999C67.6003 34.9999 66.7011 34.6669 65.9959 34.0007C65.2973 33.3282 64.9479 32.4712 64.9479 31.43C64.9479 30.3888 65.2973 29.5351 65.9959 28.869C66.7011 28.1964 67.6003 27.8601 68.6936 27.8601C69.7804 27.8601 70.6732 28.1964 71.3719 28.869C72.0705 29.5351 72.4199 30.3888 72.4199 31.43C72.4199 32.4712 72.0705 33.3282 71.3719 34.0007C70.6732 34.6669 69.7804 34.9999 68.6936 34.9999ZM67.403 32.7396C67.7459 33.0824 68.1761 33.2538 68.6936 33.2538C69.2111 33.2538 69.6349 33.0824 69.9648 32.7396C70.3012 32.3969 70.4694 31.9603 70.4694 31.43C70.4694 30.8997 70.3012 30.4632 69.9648 30.1204C69.6349 29.7776 69.2111 29.6063 68.6936 29.6063C68.1761 29.6063 67.7459 29.7776 67.403 30.1204C67.0666 30.4632 66.8984 30.8997 66.8984 31.43C66.8984 31.9603 67.0666 32.3969 67.403 32.7396Z" fill="white"/>
<path d="M79.1158 31.1972H82.8421C82.8421 31.928 82.6933 32.5844 82.3957 33.1665C82.0981 33.7421 81.6776 34.1915 81.1342 34.5149C80.5908 34.8383 79.9698 34.9999 79.2711 34.9999C78.2231 34.9999 77.3562 34.6636 76.6705 33.991C75.9912 33.3185 75.6516 32.468 75.6516 31.4397C75.6516 30.405 75.988 29.5513 76.6608 28.8787C77.34 28.1996 78.2037 27.8601 79.2517 27.8601C80.138 27.8601 80.911 28.1123 81.5709 28.6168C82.2307 29.1212 82.6319 29.7679 82.7742 30.5569H80.814C80.6911 30.2724 80.4873 30.046 80.2027 29.8779C79.9245 29.7033 79.614 29.616 79.2711 29.616C78.76 29.616 78.346 29.7841 78.029 30.1204C77.7185 30.4567 77.5632 30.8965 77.5632 31.4397C77.5632 31.789 77.6311 32.1026 77.767 32.3807C77.9093 32.6523 78.1099 32.8657 78.3686 33.021C78.6274 33.1697 78.9282 33.2441 79.2711 33.2441C79.6269 33.2441 79.9439 33.1665 80.2221 33.0113C80.5067 32.8496 80.7008 32.6362 80.8043 32.371H79.1158V31.1972Z" fill="white"/>
<path d="M90.4103 32.2774L90.4333 34.8033C90.4333 34.8417 90.418 34.8763 90.3872 34.9071C90.3565 34.9301 90.3219 34.9417 90.2834 34.9417H88.4842C88.4457 34.9417 88.4111 34.9301 88.3804 34.9071C88.3496 34.8763 88.3342 34.8417 88.3342 34.8033V32.289L85.7161 28.2176C85.6777 28.1561 85.6584 28.11 85.6584 28.0792C85.6584 28.0331 85.6815 28.01 85.7276 28.01H87.8268C87.9498 28.01 88.0421 28.0561 88.1036 28.1484L89.0262 29.6708L89.3492 30.2937H89.3953C89.4722 30.1014 89.5799 29.8938 89.7183 29.6708L90.6409 28.1484C90.7025 28.0561 90.7947 28.01 90.9178 28.01H93.0053C93.0592 28.01 93.0861 28.0331 93.0861 28.0792C93.0861 28.1023 93.0668 28.1446 93.0284 28.2061L90.4103 32.2774Z" fill="white"/>
<path d="M71.1785 11.1204C71.1785 4.97469 75.4128 0 82.2725 0C89.1677 0 93.402 4.97469 93.402 11.1204C93.402 17.266 89.1677 22.2398 82.2725 22.2398C75.4119 22.2398 71.1785 17.2613 71.1785 11.1204ZM75.5528 11.1204C75.5084 12.0363 75.6505 12.9517 75.9702 13.8093C76.2899 14.667 76.7804 15.4486 77.4109 16.1053C78.0415 16.762 78.7986 17.2797 79.6351 17.6261C80.4715 17.9725 81.3694 18.1402 82.2725 18.1187C83.1801 18.1448 84.0832 17.9808 84.9256 17.637C85.768 17.2931 86.5316 16.7768 87.1687 16.1202C87.8059 15.4636 88.3029 14.6807 88.6288 13.8205C88.9548 12.9603 89.1026 12.0411 89.0631 11.1204C89.1026 10.1996 88.9548 9.28041 88.6288 8.42019C88.3029 7.55998 87.8059 6.77715 87.1687 6.12053C86.5316 5.46391 85.768 4.94758 84.9256 4.60374C84.0832 4.25991 83.1801 4.09593 82.2725 4.12205C81.3694 4.1005 80.4715 4.26816 79.6351 4.61457C78.7986 4.96097 78.0415 5.47868 77.4109 6.13538C76.7804 6.79208 76.2899 7.57366 75.9702 8.43136C75.6505 9.28905 75.5084 10.2044 75.5528 11.1204Z" fill="#FFBE2E"/>
</svg>
